<svg width="304" height="185" viewBox="0 0 304 185" fill="none" xmlns="http://www.w3.org/2000/svg">
<path d="M302.28 126.52C302.36 132.2 301.44 137.6 299.52 142.72C297.6 147.76 295 152.4 291.72 156.64C288.52 160.96 284.72 164.8 280.32 168.16C275.92 171.6 271.24 174.48 266.28 176.8C261.4 179.2 256.36 181.04 251.16 182.32C246.04 183.6 241.04 184.24 236.16 184.24C227.36 184.24 219.8 182.92 213.48 180.28C207.24 177.64 202.08 174.16 198 169.84C194 165.52 191 160.6 189 155.08C187.08 149.56 186.08 143.92 186 138.16C185.92 132.4 186.68 126.76 188.28 121.24C189.96 115.72 192.36 110.8 195.48 106.48C196.92 104.48 198.4 103.12 199.92 102.4C201.52 101.6 203.04 101.24 204.48 101.32C205.92 101.32 207.28 101.6 208.56 102.16C209.84 102.72 210.84 103.4 211.56 104.2C212.36 104.92 212.84 105.64 213 106.36C213.16 107 212.92 107.4 212.28 107.56C210.68 107.32 209.12 108.12 207.6 109.96C206.16 111.8 204.84 114.24 203.64 117.28C202.44 120.24 201.44 123.6 200.64 127.36C199.92 131.12 199.48 134.76 199.32 138.28C199 144.84 199.84 150.72 201.84 155.92C203.92 161.12 206.8 165.44 210.48 168.88C214.24 172.32 218.6 174.72 223.56 176.08C228.6 177.44 233.96 177.56 239.64 176.44C246.36 175.08 252.48 172.68 258 169.24C263.6 165.8 268.4 161.68 272.4 156.88C276.48 152.08 279.72 146.8 282.12 141.04C284.52 135.2 285.92 129.2 286.32 123.04C286.72 117.04 285.8 112.24 283.56 108.64C281.4 105.04 278.32 102.56 274.32 101.2C270.4 99.76 265.72 99.4 260.28 100.12C254.92 100.76 249.24 102.28 243.24 104.68C241.96 109 240.68 113.28 239.4 117.52C238.12 121.68 236.88 125.8 235.68 129.88C233.36 137.8 231.76 144.28 230.88 149.32C230 154.36 230.24 157.4 231.6 158.44C231.44 159 230.76 159.44 229.56 159.76C228.36 160.08 227 160.12 225.48 159.88C223.96 159.72 222.36 159.16 220.68 158.2C219.08 157.24 217.72 155.76 216.6 153.76C215.56 151.76 214.92 149.16 214.68 145.96C214.44 142.68 214.92 138.64 216.12 133.84C216.6 131.76 217.52 128.68 218.88 124.6C220.32 120.44 221.96 115.76 223.8 110.56C225.64 105.36 227.56 99.84 229.56 94C231.64 88.08 233.56 82.36 235.32 76.84C237.08 71.32 238.6 66.2 239.88 61.48C241.16 56.76 241.96 52.88 242.28 49.84C242.76 45.6 242 42.24 240 39.76C238 37.28 235.16 35.96 231.48 35.8C227.8 35.64 223.48 36.76 218.52 39.16C213.64 41.56 208.52 45.52 203.16 51.04C199.08 55.28 195.92 59.64 193.68 64.12C191.44 68.6 189.92 72.92 189.12 77.08C188.32 81.24 188.2 85.12 188.76 88.72C189.32 92.24 190.32 95.12 191.76 97.36C191.28 98.4 190.24 99.08 188.64 99.4C187.12 99.72 185.48 99.6 183.72 99.04C181.88 98.48 180.08 97.52 178.32 96.16C176.48 94.72 175.08 92.8 174.12 90.4C173 87.76 172.48 84.68 172.56 81.16C172.64 77.64 173.28 73.92 174.48 70C175.68 66.08 177.48 62.16 179.88 58.24C182.2 54.32 185.12 50.64 188.64 47.2C194.24 41.84 200 37.6 205.92 34.48C211.92 31.36 217.64 29.4 223.08 28.6C228.52 27.72 233.44 28.04 237.84 29.56C242.32 31.08 245.88 33.8 248.52 37.72C250.44 40.52 251.64 44.04 252.12 48.28C252.68 52.52 252.72 57.28 252.24 62.56C253.84 58.48 255.6 54.52 257.52 50.68C259.52 46.84 261.64 43.4 263.88 40.36C266.2 37.32 268.64 34.8 271.2 32.8C273.76 30.72 276.36 29.44 279 28.96C282.2 28.4 285.12 28.88 287.76 30.4C290.4 31.92 292.52 34.12 294.12 37C295.72 39.88 296.68 43.32 297 47.32C297.4 51.32 296.92 55.56 295.56 60.04C294.12 64.76 291.88 69.12 288.84 73.12C285.88 77.04 282.72 80.52 279.36 83.56C276.08 86.52 272.96 89 270 91C267.12 92.92 265.08 94.2 263.88 94.84C265.72 94.68 267.92 94.6 270.48 94.6C273.12 94.52 275.84 94.76 278.64 95.32C281.44 95.8 284.24 96.68 287.04 97.96C289.84 99.24 292.36 101.08 294.6 103.48C296.84 105.88 298.64 108.96 300 112.72C301.44 116.48 302.2 121.08 302.28 126.52ZM246.12 94C245.96 94.64 245.76 95.28 245.52 95.92C245.36 96.56 245.2 97.2 245.04 97.84C246 97.52 247.72 96.8 250.2 95.68C252.76 94.56 255.6 93.04 258.72 91.12C261.84 89.2 265.04 86.84 268.32 84.04C271.6 81.16 274.52 77.76 277.08 73.84C279.96 69.44 282.12 64.84 283.56 60.04C285.08 55.16 285.84 50.8 285.84 46.96C285.84 43.12 285.12 40.16 283.68 38.08C282.32 35.92 280.2 35.36 277.32 36.4C275.56 37.04 273.68 38.64 271.68 41.2C269.68 43.68 267.64 46.68 265.56 50.2C263.56 53.72 261.56 57.6 259.56 61.84C257.56 66 255.68 70.12 253.92 74.2C252.24 78.2 250.72 81.96 249.36 85.48C248 89 246.92 91.84 246.12 94Z" fill="#555555"/>
<path d="M161.56 146.04C159.96 148.6 158.2 151.04 156.28 153.36C154.36 155.6 152.28 157.68 150.04 159.6C151.96 161.68 153.64 163.36 155.08 164.64C156.6 165.84 157.64 166.44 158.2 166.44C158.44 167.72 158.24 169 157.6 170.28C156.96 171.64 155.96 172.76 154.6 173.64C153.32 174.6 151.72 175.16 149.8 175.32C147.88 175.48 145.72 175.04 143.32 174C142.44 173.6 141.4 172.92 140.2 171.96C139.08 171.08 137.92 169.96 136.72 168.6C133.52 170.2 130.32 171.44 127.12 172.32C123.92 173.28 120.84 173.84 117.88 174C115 174.16 112.28 173.88 109.72 173.16C107.16 172.52 104.92 171.4 103 169.8C100.28 167.48 98.52 165.08 97.72 162.6C97 160.04 96.96 157.48 97.6 154.92C98.24 152.28 99.4 149.68 101.08 147.12C102.84 144.56 104.8 142.12 106.96 139.8C109.2 137.48 111.48 135.28 113.8 133.2C116.2 131.12 118.4 129.28 120.4 127.68C120.24 124.72 120.36 121.76 120.76 118.8C121.16 115.84 121.88 112.92 122.92 110.04C124.04 106.84 125.56 104.04 127.48 101.64C129.4 99.24 131.48 97.24 133.72 95.64C136.04 94.04 138.44 92.84 140.92 92.04C143.48 91.24 145.88 90.8 148.12 90.72C150.44 90.64 152.52 90.96 154.36 91.68C156.28 92.32 157.76 93.32 158.8 94.68C160.48 96.84 160.84 99.44 159.88 102.48C159 105.52 157.28 108.76 154.72 112.2C152.16 115.64 149 119.16 145.24 122.76C141.48 126.28 137.64 129.68 133.72 132.96C134.52 135.44 135.52 137.88 136.72 140.28C137.92 142.6 139.2 144.88 140.56 147.12C143.76 144.48 146.6 141.84 149.08 139.2C151.56 136.56 153.36 134.24 154.48 132.24C154 132.24 153.68 132.12 153.52 131.88C153.44 131.64 153.48 131.36 153.64 131.04C153.88 130.72 154.2 130.44 154.6 130.2C155 129.96 155.44 129.8 155.92 129.72C157.6 129.16 159 129.4 160.12 130.44C161.32 131.4 162.2 132.8 162.76 134.64C163.32 136.4 163.48 138.36 163.24 140.52C163.08 142.6 162.52 144.44 161.56 146.04ZM152.68 96.96C151.88 96.16 150.44 96.12 148.36 96.84C146.28 97.48 144.08 98.76 141.76 100.68C139.52 102.52 137.44 104.96 135.52 108C133.6 111.04 132.4 114.52 131.92 118.44C135.04 116.04 138 113.68 140.8 111.36C143.6 109.04 146 106.92 148 105C150 103.08 151.44 101.44 152.32 100.08C153.28 98.64 153.4 97.6 152.68 96.96ZM108.76 160.32C109.32 161.44 110.24 162.16 111.52 162.48C112.8 162.72 114.32 162.64 116.08 162.24C117.84 161.76 119.76 161 121.84 159.96C123.92 158.92 126.08 157.68 128.32 156.24C127.2 154.08 126.12 151.8 125.08 149.4C124.12 147 123.28 144.48 122.56 141.84C120.24 143.68 118.12 145.48 116.2 147.24C114.28 148.92 112.64 150.56 111.28 152.16C110 153.68 109.12 155.12 108.64 156.48C108.16 157.84 108.2 159.12 108.76 160.32Z" fill="#555555"/>
<path d="M86.64 137C82.72 145.48 78.4 152.68 73.68 158.6C69.04 164.52 64.28 169.36 59.4 173.12C54.52 176.88 49.68 179.6 44.88 181.28C40.16 183.04 35.76 183.88 31.68 183.8C27.6 183.72 23.96 182.84 20.76 181.16C17.64 179.48 15.28 177.12 13.68 174.08C12.64 172.16 12 169.72 11.76 166.76C11.44 163.88 11.64 160.64 12.36 157.04C13.16 153.44 14.48 149.56 16.32 145.4C18.24 141.24 20.84 136.92 24.12 132.44C28.52 126.36 32.68 121.48 36.6 117.8C40.6 114.12 44.24 111.28 47.52 109.28C50.88 107.28 53.88 105.96 56.52 105.32C59.16 104.6 61.36 104.24 63.12 104.24C65.12 104.24 66.6 104.6 67.56 105.32C68.52 105.96 69.08 106.72 69.24 107.6C69.48 108.48 69.4 109.32 69 110.12C68.68 110.92 68.16 111.4 67.44 111.56C65.76 110.84 63.36 111.24 60.24 112.76C57.12 114.28 53.72 116.56 50.04 119.6C46.44 122.64 42.72 126.24 38.88 130.4C35.12 134.56 31.68 138.84 28.56 143.24C25.28 148.04 22.92 152.24 21.48 155.84C20.12 159.44 19.44 162.44 19.44 164.84C19.52 167.24 20.16 169 21.36 170.12C22.64 171.32 24.24 171.92 26.16 171.92C29.84 171.92 33.72 170.84 37.8 168.68C41.88 166.52 45.96 163.4 50.04 159.32C54.2 155.24 58.32 150.24 62.4 144.32C66.48 138.32 70.32 131.52 73.92 123.92C79.68 111.84 83.64 101.16 85.8 91.88C88.04 82.6 89.16 74.76 89.16 68.36C89.24 61.96 88.56 57.04 87.12 53.6C85.76 50.08 84.32 48 82.8 47.36C80.88 46.64 78.6 46.88 75.96 48.08C73.32 49.28 70.4 51.08 67.2 53.48C64 55.88 60.52 58.68 56.76 61.88C53.08 65 49.24 68.16 45.24 71.36C41.24 74.56 37.12 77.56 32.88 80.36C28.64 83.16 24.4 85.36 20.16 86.96C16.8 88.24 13.8 88.84 11.16 88.76C8.52 88.6 6.36 88.08 4.68 87.2C3 86.24 1.84 85.08 1.2 83.72C0.559999 82.28 0.559999 80.92 1.2 79.64C2.24 79.88 3.68 79.72 5.52 79.16C7.36 78.6 9.64 77.56 12.36 76.04C15.16 74.52 18.36 72.48 21.96 69.92C25.64 67.28 29.8 64.04 34.44 60.2C40.04 55.56 45.16 51.76 49.8 48.8C54.44 45.76 58.76 43.52 62.76 42.08C66.84 40.56 70.6 39.8 74.04 39.8C77.56 39.72 80.96 40.32 84.24 41.6C89.12 43.52 93.04 47.28 96 52.88C99.04 58.4 100.84 65.36 101.4 73.76C101.96 82.08 101.08 91.64 98.76 102.44C96.44 113.16 92.4 124.68 86.64 137Z" fill="#555555"/>
</svg>
