<svg width="725" height="278" viewBox="0 0 725 278" fill="none" xmlns="http://www.w3.org/2000/svg">
<path d="M494.28 207.52C494.36 213.2 493.44 218.6 491.52 223.72C489.6 228.76 487 233.4 483.72 237.64C480.52 241.96 476.72 245.8 472.32 249.16C467.92 252.6 463.24 255.48 458.28 257.8C453.4 260.2 448.36 262.04 443.16 263.32C438.04 264.6 433.04 265.24 428.16 265.24C419.36 265.24 411.8 263.92 405.48 261.28C399.24 258.64 394.08 255.16 390 250.84C386 246.52 383 241.6 381 236.08C379.08 230.56 378.08 224.92 378 219.16C377.92 213.4 378.68 207.76 380.28 202.24C381.96 196.72 384.36 191.8 387.48 187.48C388.92 185.48 390.4 184.12 391.92 183.4C393.52 182.6 395.04 182.24 396.48 182.32C397.92 182.32 399.28 182.6 400.56 183.16C401.84 183.72 402.84 184.4 403.56 185.2C404.36 185.92 404.84 186.64 405 187.36C405.16 188 404.92 188.4 404.28 188.56C402.68 188.32 401.12 189.12 399.6 190.96C398.16 192.8 396.84 195.24 395.64 198.28C394.44 201.24 393.44 204.6 392.64 208.36C391.92 212.12 391.48 215.76 391.32 219.28C391 225.84 391.84 231.72 393.84 236.92C395.92 242.12 398.8 246.44 402.48 249.88C406.24 253.32 410.6 255.72 415.56 257.08C420.6 258.44 425.96 258.56 431.64 257.44C438.36 256.08 444.48 253.68 450 250.24C455.6 246.8 460.4 242.68 464.4 237.88C468.48 233.08 471.72 227.8 474.12 222.04C476.52 216.2 477.92 210.2 478.32 204.04C478.72 198.04 477.8 193.24 475.56 189.64C473.4 186.04 470.32 183.56 466.32 182.2C462.4 180.76 457.72 180.4 452.28 181.12C446.92 181.76 441.24 183.28 435.24 185.68C433.96 190 432.68 194.28 431.4 198.52C430.12 202.68 428.88 206.8 427.68 210.88C425.36 218.8 423.76 225.28 422.88 230.32C422 235.36 422.24 238.4 423.6 239.44C423.44 240 422.76 240.44 421.56 240.76C420.36 241.08 419 241.12 417.48 240.88C415.96 240.72 414.36 240.16 412.68 239.2C411.08 238.24 409.72 236.76 408.6 234.76C407.56 232.76 406.92 230.16 406.68 226.96C406.44 223.68 406.92 219.64 408.12 214.84C408.6 212.76 409.52 209.68 410.88 205.6C412.32 201.44 413.96 196.76 415.8 191.56C417.64 186.36 419.56 180.84 421.56 175C423.64 169.08 425.56 163.36 427.32 157.84C429.08 152.32 430.6 147.2 431.88 142.48C433.16 137.76 433.96 133.88 434.28 130.84C434.76 126.6 434 123.24 432 120.76C430 118.28 427.16 116.96 423.48 116.8C419.8 116.64 415.48 117.76 410.52 120.16C405.64 122.56 400.52 126.52 395.16 132.04C391.08 136.28 387.92 140.64 385.68 145.12C383.44 149.6 381.92 153.92 381.12 158.08C380.32 162.24 380.2 166.12 380.76 169.72C381.32 173.24 382.32 176.12 383.76 178.36C383.28 179.4 382.24 180.08 380.64 180.4C379.12 180.72 377.48 180.6 375.72 180.04C373.88 179.48 372.08 178.52 370.32 177.16C368.48 175.72 367.08 173.8 366.12 171.4C365 168.76 364.48 165.68 364.56 162.16C364.64 158.64 365.28 154.92 366.48 151C367.68 147.08 369.48 143.16 371.88 139.24C374.2 135.32 377.12 131.64 380.64 128.2C386.24 122.84 392 118.6 397.92 115.48C403.92 112.36 409.64 110.4 415.08 109.6C420.52 108.72 425.44 109.04 429.84 110.56C434.32 112.08 437.88 114.8 440.52 118.72C442.44 121.52 443.64 125.04 444.12 129.28C444.68 133.52 444.72 138.28 444.24 143.56C445.84 139.48 447.6 135.52 449.52 131.68C451.52 127.84 453.64 124.4 455.88 121.36C458.2 118.32 460.64 115.8 463.2 113.8C465.76 111.72 468.36 110.44 471 109.96C474.2 109.4 477.12 109.88 479.76 111.4C482.4 112.92 484.52 115.12 486.12 118C487.72 120.88 488.68 124.32 489 128.32C489.4 132.32 488.92 136.56 487.56 141.04C486.12 145.76 483.88 150.12 480.84 154.12C477.88 158.04 474.72 161.52 471.36 164.56C468.08 167.52 464.96 170 462 172C459.12 173.92 457.08 175.2 455.88 175.84C457.72 175.68 459.92 175.6 462.48 175.6C465.12 175.52 467.84 175.76 470.64 176.32C473.44 176.8 476.24 177.68 479.04 178.96C481.84 180.24 484.36 182.08 486.6 184.48C488.84 186.88 490.64 189.96 492 193.72C493.44 197.48 494.2 202.08 494.28 207.52ZM438.12 175C437.96 175.64 437.76 176.28 437.52 176.92C437.36 177.56 437.2 178.2 437.04 178.84C438 178.52 439.72 177.8 442.2 176.68C444.76 175.56 447.6 174.04 450.72 172.12C453.84 170.2 457.04 167.84 460.32 165.04C463.6 162.16 466.52 158.76 469.08 154.84C471.96 150.44 474.12 145.84 475.56 141.04C477.08 136.16 477.84 131.8 477.84 127.96C477.84 124.12 477.12 121.16 475.68 119.08C474.32 116.92 472.2 116.36 469.32 117.4C467.56 118.04 465.68 119.64 463.68 122.2C461.68 124.68 459.64 127.68 457.56 131.2C455.56 134.72 453.56 138.6 451.56 142.84C449.56 147 447.68 151.12 445.92 155.2C444.24 159.2 442.72 162.96 441.36 166.48C440 170 438.92 172.84 438.12 175ZM558.228 199.48C558.788 199.64 559.348 200.08 559.908 200.8C560.548 201.52 561.108 202.36 561.588 203.32C562.148 204.2 562.548 205.12 562.788 206.08C563.028 206.96 563.068 207.6 562.908 208C562.348 209.44 561.428 211.12 560.148 213.04C558.948 214.88 557.548 216.8 555.948 218.8C554.428 220.72 552.748 222.6 550.908 224.44C549.068 226.28 547.228 227.88 545.388 229.24C543.548 230.52 541.748 231.44 539.988 232C538.228 232.64 536.668 232.68 535.308 232.12C533.228 231.32 531.348 230.12 529.668 228.52C528.068 226.92 527.228 224.4 527.148 220.96C527.068 217.52 527.988 212.88 529.908 207.04C531.908 201.2 535.468 193.64 540.588 184.36C536.988 190.44 533.348 196.28 529.668 201.88C526.068 207.48 522.748 212.44 519.708 216.76C516.668 221 513.988 224.44 511.668 227.08C509.428 229.64 507.908 230.96 507.108 231.04C505.508 231.2 504.108 231.08 502.908 230.68C501.708 230.2 500.828 229.24 500.268 227.8C499.628 226.28 499.388 224.2 499.548 221.56C499.628 218.84 500.228 215.36 501.348 211.12C502.468 206.8 504.148 201.64 506.388 195.64C508.628 189.56 511.508 182.4 515.028 174.16C515.988 173.6 517.428 173.4 519.348 173.56C521.268 173.72 523.068 174.2 524.748 175C526.428 175.72 527.708 176.76 528.588 178.12C529.548 179.4 529.508 180.92 528.468 182.68C527.348 184.6 525.948 187.28 524.268 190.72C522.588 194.08 520.868 197.6 519.108 201.28C517.428 204.88 515.868 208.4 514.428 211.84C512.988 215.28 511.908 218.04 511.188 220.12C512.708 218.36 514.348 216.2 516.108 213.64C517.868 211.08 519.668 208.36 521.508 205.48C523.428 202.6 525.348 199.68 527.268 196.72C529.188 193.68 531.068 190.76 532.908 187.96C534.748 185.16 536.468 182.6 538.068 180.28C539.748 177.96 541.268 176.08 542.628 174.64C544.068 173.12 545.748 172.32 547.668 172.24C549.668 172.08 551.428 172.44 552.948 173.32C554.548 174.12 555.708 175.32 556.428 176.92C557.228 178.44 557.148 180.08 556.188 181.84C553.628 186.8 551.148 191.76 548.748 196.72C546.348 201.68 544.308 206.2 542.628 210.28C540.948 214.36 539.748 217.76 539.028 220.48C538.388 223.12 538.468 224.6 539.268 224.92C539.828 225.08 540.668 224.64 541.788 223.6C542.908 222.48 544.148 221.04 545.508 219.28C546.868 217.44 548.268 215.44 549.708 213.28C551.228 211.12 552.588 209.08 553.788 207.16C555.068 205.16 556.108 203.48 556.908 202.12C557.708 200.68 558.148 199.8 558.228 199.48ZM594.419 174.16C595.379 173.6 596.819 173.4 598.739 173.56C600.659 173.72 602.459 174.2 604.139 175C605.819 175.72 607.099 176.76 607.979 178.12C608.939 179.4 608.899 180.92 607.859 182.68C607.059 183.96 605.979 185.68 604.619 187.84C603.259 190 601.779 192.36 600.179 194.92C598.659 197.4 597.099 199.92 595.499 202.48C593.979 205.04 592.619 207.4 591.419 209.56C590.299 211.64 589.499 213.4 589.019 214.84C588.539 216.2 588.579 216.96 589.139 217.12C589.939 217.36 590.299 217.76 590.219 218.32C590.139 218.8 589.739 219.28 589.019 219.76C588.379 220.24 587.539 220.56 586.499 220.72C585.459 220.88 584.339 220.64 583.139 220C580.659 218.72 579.339 216.72 579.179 214C579.019 211.28 579.539 208.2 580.739 204.76C581.939 201.32 583.579 197.72 585.659 193.96C587.819 190.12 589.979 186.52 592.139 183.16C590.459 185.16 588.539 187.6 586.379 190.48C584.299 193.36 582.139 196.44 579.899 199.72C577.739 202.92 575.619 206.2 573.539 209.56C571.459 212.84 569.619 215.96 568.019 218.92C566.419 221.88 565.139 224.52 564.179 226.84C563.219 229.16 562.779 230.88 562.859 232C563.019 232.88 563.299 233.48 563.699 233.8C563.939 234.04 563.819 234.6 563.339 235.48C562.939 236.36 562.299 237.2 561.419 238C560.539 238.88 559.419 239.56 558.059 240.04C556.779 240.52 555.379 240.52 553.859 240.04C549.459 238.6 547.339 235.32 547.499 230.2C547.659 225 549.819 217.56 553.979 207.88C555.979 203.32 557.539 199.44 558.659 196.24C559.859 192.96 560.299 190.48 559.979 188.8C561.259 187.28 562.819 186.28 564.659 185.8C566.499 185.32 568.219 185.32 569.819 185.8C571.499 186.28 572.819 187.2 573.779 188.56C574.739 189.84 574.979 191.44 574.499 193.36C574.179 194.48 573.659 196.04 572.939 198.04C572.219 199.96 571.419 202.08 570.539 204.4C572.619 200.96 574.739 197.64 576.899 194.44C579.059 191.16 581.139 188.2 583.139 185.56C585.219 182.84 587.219 180.52 589.139 178.6C591.059 176.6 592.819 175.12 594.419 174.16ZM642.943 192.4C645.663 192.8 647.583 194.24 648.703 196.72C649.903 199.12 650.423 202.32 650.263 206.32C650.103 210.24 649.383 214.8 648.103 220C646.903 225.12 645.303 230.52 643.303 236.2C640.903 243.08 638.383 249.16 635.743 254.44C633.103 259.72 630.423 264.12 627.703 267.64C624.983 271.16 622.263 273.76 619.543 275.44C616.903 277.12 614.383 277.76 611.983 277.36C608.783 276.88 606.263 275.52 604.423 273.28C602.663 271.12 601.463 268.8 600.823 266.32C600.103 263.84 599.903 261.56 600.223 259.48C600.543 257.4 601.263 256.2 602.383 255.88C603.903 258.36 605.463 260 607.063 260.8C608.743 261.6 610.463 261.4 612.223 260.2C614.063 259.08 616.063 256.84 618.223 253.48C620.383 250.12 622.783 245.52 625.423 239.68C628.783 232.16 631.383 225.44 633.223 219.52C635.143 213.52 636.223 208.72 636.463 205.12C634.863 207.44 632.903 210.16 630.583 213.28C628.343 216.32 625.983 219.24 623.503 222.04C621.103 224.84 618.743 227.2 616.423 229.12C614.183 231.04 612.263 232 610.663 232C607.943 232 605.783 231.04 604.183 229.12C602.663 227.2 601.703 224.76 601.303 221.8C600.823 218.76 600.943 215.4 601.663 211.72C602.303 207.96 603.463 204.24 605.143 200.56C607.783 194.96 610.543 190.32 613.423 186.64C616.383 182.96 619.343 180.12 622.303 178.12C625.263 176.04 628.143 174.68 630.943 174.04C633.743 173.4 636.343 173.32 638.743 173.8C641.143 174.2 643.263 175.08 645.103 176.44C646.943 177.8 648.383 179.44 649.423 181.36C649.743 182 649.743 182.84 649.423 183.88C649.103 184.84 648.583 185.76 647.863 186.64C647.143 187.44 646.303 188.08 645.343 188.56C644.383 188.96 643.463 188.92 642.583 188.44C643.063 184.84 642.663 182.76 641.383 182.2C640.183 181.56 638.543 181.92 636.463 183.28C634.383 184.64 632.063 186.8 629.503 189.76C627.023 192.64 624.663 195.8 622.423 199.24C621.063 201.32 619.743 203.68 618.463 206.32C617.263 208.88 616.263 211.32 615.463 213.64C614.743 215.88 614.343 217.8 614.263 219.4C614.263 221 614.783 221.84 615.823 221.92C616.143 221.92 616.983 221.2 618.343 219.76C619.783 218.32 621.423 216.52 623.263 214.36C625.183 212.2 627.183 209.88 629.263 207.4C631.343 204.84 633.223 202.48 634.903 200.32C634.983 199.76 635.263 199 635.743 198.04C636.223 197.08 636.863 196.16 637.663 195.28C638.463 194.4 639.303 193.68 640.183 193.12C641.143 192.56 642.063 192.32 642.943 192.4ZM675.646 147.64C674.926 150.44 674.006 153.48 672.886 156.76C671.766 160.04 670.526 163.32 669.166 166.6C667.886 169.8 666.606 172.84 665.326 175.72H657.526C658.086 173.48 658.646 171.08 659.206 168.52C659.846 165.96 660.406 163.4 660.886 160.84C661.446 158.2 661.926 155.64 662.326 153.16C662.806 150.68 663.206 148.4 663.526 146.32H674.806L675.646 147.64ZM717.623 168.64C718.423 168.88 719.303 169.44 720.263 170.32C721.303 171.12 722.063 172.32 722.543 173.92C723.023 175.44 723.063 177.44 722.663 179.92C722.263 182.32 721.103 185.24 719.183 188.68C718.543 189.88 717.703 191.44 716.663 193.36C715.623 195.2 714.583 197.08 713.543 199C712.583 200.84 711.743 202.56 711.023 204.16C710.303 205.68 709.903 206.72 709.823 207.28C709.503 208.08 708.743 208.6 707.543 208.84C706.423 209 705.263 208.92 704.063 208.6C702.863 208.2 701.823 207.52 700.943 206.56C700.143 205.6 699.863 204.32 700.103 202.72C700.743 199.04 701.823 195.76 703.343 192.88C704.863 189.92 706.383 187.44 707.902 185.44C709.423 183.36 710.703 181.76 711.743 180.64C712.863 179.52 713.263 178.88 712.943 178.72C712.303 178.48 711.103 179 709.343 180.28C707.583 181.56 705.623 183.28 703.463 185.44C701.303 187.52 699.103 189.88 696.863 192.52C694.623 195.16 692.703 197.68 691.103 200.08C689.583 202.48 688.503 204.64 687.863 206.56C687.303 208.4 687.623 209.6 688.823 210.16C691.223 211.36 693.543 212.52 695.783 213.64C698.103 214.76 700.263 216 702.263 217.36C704.263 218.64 705.983 220.08 707.423 221.68C708.943 223.28 710.103 225.12 710.903 227.2C711.703 229.52 711.863 231.84 711.383 234.16C710.903 236.56 709.783 238.72 708.023 240.64C706.343 242.56 704.063 244.16 701.183 245.44C698.303 246.72 694.943 247.36 691.103 247.36C687.743 247.36 684.703 246.76 681.983 245.56C679.263 244.44 677.103 242.92 675.502 241C673.822 239.16 672.822 237.08 672.502 234.76C672.182 232.52 672.702 230.32 674.062 228.16C675.662 225.68 677.423 224.04 679.343 223.24C681.343 222.36 683.143 222.04 684.743 222.28C686.423 222.44 687.663 223 688.463 223.96C689.343 224.84 689.423 225.72 688.703 226.6C688.223 227.24 687.583 228.08 686.783 229.12C685.983 230.16 685.423 231.2 685.103 232.24C684.863 233.36 685.023 234.4 685.583 235.36C686.223 236.32 687.703 237 690.023 237.4C691.863 237.8 693.743 237.76 695.663 237.28C697.663 236.8 699.263 236.04 700.463 235C701.743 234.04 702.423 232.84 702.503 231.4C702.583 229.96 701.743 228.4 699.983 226.72C698.143 225.04 695.783 223.64 692.902 222.52C690.023 221.4 687.263 220.16 684.623 218.8C681.983 217.36 679.823 215.64 678.143 213.64C676.542 211.56 676.102 208.76 676.822 205.24C677.303 202.92 678.303 200.32 679.823 197.44C681.423 194.48 683.343 191.52 685.583 188.56C687.823 185.52 690.303 182.64 693.023 179.92C695.823 177.2 698.663 174.88 701.543 172.96C704.423 171.04 707.223 169.68 709.943 168.88C712.743 168 715.303 167.92 717.623 168.64Z" fill="#555555"/>
<path d="M362.97 208.98C360.437 213.033 357.65 216.897 354.61 220.57C351.57 224.117 348.277 227.41 344.73 230.45C347.77 233.743 350.43 236.403 352.71 238.43C355.117 240.33 356.763 241.28 357.65 241.28C358.03 243.307 357.713 245.333 356.7 247.36C355.687 249.513 354.103 251.287 351.95 252.68C349.923 254.2 347.39 255.087 344.35 255.34C341.31 255.593 337.89 254.897 334.09 253.25C332.697 252.617 331.05 251.54 329.15 250.02C327.377 248.627 325.54 246.853 323.64 244.7C318.573 247.233 313.507 249.197 308.44 250.59C303.373 252.11 298.497 252.997 293.81 253.25C289.25 253.503 284.943 253.06 280.89 251.92C276.837 250.907 273.29 249.133 270.25 246.6C265.943 242.927 263.157 239.127 261.89 235.2C260.75 231.147 260.687 227.093 261.7 223.04C262.713 218.86 264.55 214.743 267.21 210.69C269.997 206.637 273.1 202.773 276.52 199.1C280.067 195.427 283.677 191.943 287.35 188.65C291.15 185.357 294.633 182.443 297.8 179.91C297.547 175.223 297.737 170.537 298.37 165.85C299.003 161.163 300.143 156.54 301.79 151.98C303.563 146.913 305.97 142.48 309.01 138.68C312.05 134.88 315.343 131.713 318.89 129.18C322.563 126.647 326.363 124.747 330.29 123.48C334.343 122.213 338.143 121.517 341.69 121.39C345.363 121.263 348.657 121.77 351.57 122.91C354.61 123.923 356.953 125.507 358.6 127.66C361.26 131.08 361.83 135.197 360.31 140.01C358.917 144.823 356.193 149.953 352.14 155.4C348.087 160.847 343.083 166.42 337.13 172.12C331.177 177.693 325.097 183.077 318.89 188.27C320.157 192.197 321.74 196.06 323.64 199.86C325.54 203.533 327.567 207.143 329.72 210.69C334.787 206.51 339.283 202.33 343.21 198.15C347.137 193.97 349.987 190.297 351.76 187.13C351 187.13 350.493 186.94 350.24 186.56C350.113 186.18 350.177 185.737 350.43 185.23C350.81 184.723 351.317 184.28 351.95 183.9C352.583 183.52 353.28 183.267 354.04 183.14C356.7 182.253 358.917 182.633 360.69 184.28C362.59 185.8 363.983 188.017 364.87 190.93C365.757 193.717 366.01 196.82 365.63 200.24C365.377 203.533 364.49 206.447 362.97 208.98ZM348.91 131.27C347.643 130.003 345.363 129.94 342.07 131.08C338.777 132.093 335.293 134.12 331.62 137.16C328.073 140.073 324.78 143.937 321.74 148.75C318.7 153.563 316.8 159.073 316.04 165.28C320.98 161.48 325.667 157.743 330.1 154.07C334.533 150.397 338.333 147.04 341.5 144C344.667 140.96 346.947 138.363 348.34 136.21C349.86 133.93 350.05 132.283 348.91 131.27ZM279.37 231.59C280.257 233.363 281.713 234.503 283.74 235.01C285.767 235.39 288.173 235.263 290.96 234.63C293.747 233.87 296.787 232.667 300.08 231.02C303.373 229.373 306.793 227.41 310.34 225.13C308.567 221.71 306.857 218.1 305.21 214.3C303.69 210.5 302.36 206.51 301.22 202.33C297.547 205.243 294.19 208.093 291.15 210.88C288.11 213.54 285.513 216.137 283.36 218.67C281.333 221.077 279.94 223.357 279.18 225.51C278.42 227.663 278.483 229.69 279.37 231.59Z" fill="#555555"/>
<path d="M86.64 218C82.72 226.48 78.4 233.68 73.68 239.6C69.04 245.52 64.28 250.36 59.4 254.12C54.52 257.88 49.68 260.6 44.88 262.28C40.16 264.04 35.76 264.88 31.68 264.8C27.6 264.72 23.96 263.84 20.76 262.16C17.64 260.48 15.28 258.12 13.68 255.08C12.64 253.16 12 250.72 11.76 247.76C11.44 244.88 11.64 241.64 12.36 238.04C13.16 234.44 14.48 230.56 16.32 226.4C18.24 222.24 20.84 217.92 24.12 213.44C28.52 207.36 32.68 202.48 36.6 198.8C40.6 195.12 44.24 192.28 47.52 190.28C50.88 188.28 53.88 186.96 56.52 186.32C59.16 185.6 61.36 185.24 63.12 185.24C65.12 185.24 66.6 185.6 67.56 186.32C68.52 186.96 69.08 187.72 69.24 188.6C69.48 189.48 69.4 190.32 69 191.12C68.68 191.92 68.16 192.4 67.44 192.56C65.76 191.84 63.36 192.24 60.24 193.76C57.12 195.28 53.72 197.56 50.04 200.6C46.44 203.64 42.72 207.24 38.88 211.4C35.12 215.56 31.68 219.84 28.56 224.24C25.28 229.04 22.92 233.24 21.48 236.84C20.12 240.44 19.44 243.44 19.44 245.84C19.52 248.24 20.16 250 21.36 251.12C22.64 252.32 24.24 252.92 26.16 252.92C29.84 252.92 33.72 251.84 37.8 249.68C41.88 247.52 45.96 244.4 50.04 240.32C54.2 236.24 58.32 231.24 62.4 225.32C66.48 219.32 70.32 212.52 73.92 204.92C79.68 192.84 83.64 182.16 85.8 172.88C88.04 163.6 89.16 155.76 89.16 149.36C89.24 142.96 88.56 138.04 87.12 134.6C85.76 131.08 84.32 129 82.8 128.36C80.88 127.64 78.6 127.88 75.96 129.08C73.32 130.28 70.4 132.08 67.2 134.48C64 136.88 60.52 139.68 56.76 142.88C53.08 146 49.24 149.16 45.24 152.36C41.24 155.56 37.12 158.56 32.88 161.36C28.64 164.16 24.4 166.36 20.16 167.96C16.8 169.24 13.8 169.84 11.16 169.76C8.52 169.6 6.36 169.08 4.68 168.2C3 167.24 1.84 166.08 1.2 164.72C0.559999 163.28 0.559999 161.92 1.2 160.64C2.24 160.88 3.68 160.72 5.52 160.16C7.36 159.6 9.64 158.56 12.36 157.04C15.16 155.52 18.36 153.48 21.96 150.92C25.64 148.28 29.8 145.04 34.44 141.2C40.04 136.56 45.16 132.76 49.8 129.8C54.44 126.76 58.76 124.52 62.76 123.08C66.84 121.56 70.6 120.8 74.04 120.8C77.56 120.72 80.96 121.32 84.24 122.6C89.12 124.52 93.04 128.28 96 133.88C99.04 139.4 100.84 146.36 101.4 154.76C101.96 163.08 101.08 172.64 98.76 183.44C96.44 194.16 92.4 205.68 86.64 218ZM161.06 206.48C161.62 206.56 162.18 207 162.74 207.8C163.38 208.52 163.94 209.36 164.42 210.32C164.9 211.2 165.26 212.12 165.5 213.08C165.74 213.96 165.78 214.6 165.62 215C165.06 216.44 164.06 218.28 162.62 220.52C161.18 222.76 159.46 225.16 157.46 227.72C155.54 230.2 153.42 232.68 151.1 235.16C148.86 237.64 146.62 239.8 144.38 241.64C142.22 243.56 140.14 245 138.14 245.96C136.14 247 134.42 247.28 132.98 246.8C130.74 246.08 129.14 244.88 128.18 243.2C127.22 241.6 126.7 239.72 126.62 237.56C126.54 235.4 126.78 233.08 127.34 230.6C127.9 228.12 128.58 225.68 129.38 223.28C130.26 220.88 131.14 218.68 132.02 216.68C132.98 214.6 133.78 212.88 134.42 211.52C132.82 213.76 130.86 216.48 128.54 219.68C126.22 222.8 123.82 225.8 121.34 228.68C118.86 231.56 116.42 234 114.02 236C111.7 238 109.74 239 108.14 239C105.42 239 103.3 238.04 101.78 236.12C100.26 234.2 99.2997 231.76 98.8997 228.8C98.4197 225.76 98.5397 222.4 99.2597 218.72C99.8997 214.96 101.06 211.24 102.74 207.56C106.66 199.16 110.9 192.88 115.46 188.72C120.02 184.56 124.38 182 128.54 181.04C132.7 180 136.42 180.24 139.7 181.76C143.06 183.28 145.5 185.48 147.02 188.36C147.34 189 147.3 189.84 146.9 190.88C146.58 191.84 146.06 192.76 145.34 193.64C144.62 194.44 143.78 195.08 142.82 195.56C141.94 195.96 141.06 195.92 140.18 195.44C140.58 191.84 140.18 189.76 138.98 189.2C137.78 188.56 136.1 188.92 133.94 190.28C131.86 191.64 129.54 193.8 126.98 196.76C124.5 199.64 122.14 202.8 119.9 206.24C118.54 208.32 117.22 210.68 115.94 213.32C114.74 215.88 113.78 218.32 113.06 220.64C112.34 222.88 111.94 224.8 111.86 226.4C111.86 228 112.34 228.84 113.3 228.92C113.62 228.92 114.42 228.32 115.7 227.12C116.98 225.84 118.46 224.24 120.14 222.32C121.82 220.32 123.62 218.16 125.54 215.84C127.46 213.52 129.26 211.32 130.94 209.24C132.7 207.08 134.22 205.2 135.5 203.6C136.78 201.92 137.62 200.8 138.02 200.24C138.66 199.44 139.82 199.04 141.5 199.04C143.18 198.96 144.82 199.28 146.42 200C148.02 200.72 149.34 201.76 150.38 203.12C151.5 204.48 151.82 206.16 151.34 208.16C150.86 210.16 149.94 212.6 148.58 215.48C147.3 218.28 146.06 221.04 144.86 223.76C143.66 226.48 142.66 228.84 141.86 230.84C141.14 232.76 141.1 233.84 141.74 234.08C142.22 234.24 143.02 233.72 144.14 232.52C145.34 231.32 146.62 229.76 147.98 227.84C149.42 225.84 150.9 223.68 152.42 221.36C153.94 218.96 155.3 216.72 156.5 214.64C157.78 212.48 158.82 210.64 159.62 209.12C160.5 207.6 160.98 206.72 161.06 206.48ZM209.476 193.4C207.396 196.2 204.716 199.04 201.436 201.92C198.156 204.8 194.596 207.64 190.756 210.44C193.076 211 195.116 211.2 196.876 211.04C198.716 210.8 199.956 210.36 200.596 209.72C200.996 209.24 201.276 209.48 201.436 210.44C201.596 211.32 201.396 212.32 200.836 213.44C200.276 214.56 199.196 215.56 197.596 216.44C196.076 217.24 193.836 217.4 190.876 216.92C188.556 216.6 186.356 216 184.276 215.12C181.556 217.04 178.916 218.92 176.356 220.76C173.876 222.52 171.596 224.24 169.516 225.92C167.516 227.52 165.796 229.04 164.356 230.48C162.996 231.84 162.116 233.12 161.716 234.32C165.876 233.36 170.316 232.96 175.036 233.12C179.756 233.2 184.236 233.28 188.476 233.36C192.796 233.36 196.596 233.04 199.876 232.4C203.156 231.76 205.476 230.24 206.836 227.84C207.716 229.68 208.196 231.6 208.276 233.6C208.436 235.52 208.156 237.32 207.436 239C206.796 240.68 205.716 242.16 204.196 243.44C202.756 244.72 200.956 245.56 198.796 245.96C195.916 246.52 192.916 246.4 189.796 245.6C186.676 244.8 183.276 244 179.596 243.2C175.996 242.4 172.036 241.92 167.716 241.76C163.476 241.68 158.716 242.64 153.436 244.64C151.356 243.6 150.396 241.8 150.556 239.24C150.636 236.68 151.556 233.76 153.316 230.48C154.996 227.2 157.396 223.76 160.516 220.16C163.716 216.56 167.356 213.2 171.436 210.08C169.676 209.52 167.956 209.16 166.276 209C164.676 208.84 162.996 209.08 161.236 209.72C161.316 208.04 161.836 206.68 162.796 205.64C163.756 204.52 165.036 203.76 166.636 203.36C168.236 202.88 170.076 202.76 172.156 203C174.236 203.16 176.436 203.72 178.756 204.68C184.276 200.76 188.756 197.56 192.196 195.08C195.636 192.6 197.796 190.32 198.676 188.24C196.036 188.96 192.876 189.52 189.196 189.92C185.516 190.24 181.876 190.6 178.276 191C175.956 191.24 173.836 191.08 171.916 190.52C169.996 189.96 168.396 189.16 167.116 188.12C165.836 187 164.916 185.64 164.356 184.04C163.796 182.36 163.756 180.56 164.236 178.64C164.556 179.2 165.756 179.68 167.836 180.08C169.996 180.4 172.556 180.64 175.516 180.8C178.476 180.88 181.676 180.92 185.116 180.92C188.636 180.84 191.916 180.68 194.956 180.44C197.996 180.12 200.636 179.72 202.876 179.24C205.196 178.68 206.636 178.04 207.196 177.32C207.996 176.28 208.956 176 210.076 176.48C211.276 176.88 212.156 177.88 212.716 179.48C213.356 181 213.476 183 213.076 185.48C212.756 187.88 211.556 190.52 209.476 193.4ZM259.281 193.4C257.201 196.2 254.521 199.04 251.241 201.92C247.961 204.8 244.401 207.64 240.561 210.44C242.881 211 244.921 211.2 246.681 211.04C248.521 210.8 249.761 210.36 250.401 209.72C250.801 209.24 251.081 209.48 251.241 210.44C251.401 211.32 251.201 212.32 250.641 213.44C250.081 214.56 249.001 215.56 247.401 216.44C245.881 217.24 243.641 217.4 240.681 216.92C238.361 216.6 236.161 216 234.081 215.12C231.361 217.04 228.721 218.92 226.161 220.76C223.681 222.52 221.401 224.24 219.321 225.92C217.321 227.52 215.601 229.04 214.161 230.48C212.801 231.84 211.921 233.12 211.521 234.32C215.681 233.36 220.121 232.96 224.841 233.12C229.561 233.2 234.041 233.28 238.281 233.36C242.601 233.36 246.401 233.04 249.681 232.4C252.961 231.76 255.281 230.24 256.641 227.84C257.521 229.68 258.001 231.6 258.081 233.6C258.241 235.52 257.961 237.32 257.241 239C256.601 240.68 255.521 242.16 254.001 243.44C252.561 244.72 250.761 245.56 248.601 245.96C245.721 246.52 242.721 246.4 239.601 245.6C236.481 244.8 233.081 244 229.401 243.2C225.801 242.4 221.841 241.92 217.521 241.76C213.281 241.68 208.521 242.64 203.241 244.64C201.161 243.6 200.201 241.8 200.361 239.24C200.441 236.68 201.361 233.76 203.121 230.48C204.801 227.2 207.201 223.76 210.321 220.16C213.521 216.56 217.161 213.2 221.241 210.08C219.481 209.52 217.761 209.16 216.081 209C214.481 208.84 212.801 209.08 211.041 209.72C211.121 208.04 211.641 206.68 212.601 205.64C213.561 204.52 214.841 203.76 216.441 203.36C218.041 202.88 219.881 202.76 221.961 203C224.041 203.16 226.241 203.72 228.561 204.68C234.081 200.76 238.561 197.56 242.001 195.08C245.441 192.6 247.601 190.32 248.481 188.24C245.841 188.96 242.681 189.52 239.001 189.92C235.321 190.24 231.681 190.6 228.081 191C225.761 191.24 223.641 191.08 221.721 190.52C219.801 189.96 218.201 189.16 216.921 188.12C215.641 187 214.721 185.64 214.161 184.04C213.601 182.36 213.561 180.56 214.041 178.64C214.361 179.2 215.561 179.68 217.641 180.08C219.801 180.4 222.361 180.64 225.321 180.8C228.281 180.88 231.481 180.92 234.921 180.92C238.441 180.84 241.721 180.68 244.761 180.44C247.801 180.12 250.441 179.72 252.681 179.24C255.001 178.68 256.441 178.04 257.001 177.32C257.801 176.28 258.761 176 259.881 176.48C261.081 176.88 261.961 177.88 262.521 179.48C263.161 181 263.281 183 262.881 185.48C262.561 187.88 261.361 190.52 259.281 193.4Z" fill="#555555"/>
</svg>
